<svg width="256" height="256" viewBox="0 0 256 256" fill="none" xmlns="http://www.w3.org/2000/svg">
<rect x="0.00012207" y="7.62939e-06" width="256" height="256" fill="url(#paint0_linear)"/>
<rect x="0.00012207" y="256" width="256" height="256" transform="rotate(-90 0.00012207 256)" fill="url(#paint1_linear)"/>
<rect width="256" height="256" fill="url(#paint2_linear)"/>
<path d="M165.628 143.044C165.628 122.004 148.64 105.016 127.6 105.016C106.56 105.016 89.5725 122.004 89.5725 143.044C89.5725 155.98 96.1183 167.357 105.781 174.214C107.184 171.565 109.054 169.227 111.236 167.201C103.443 161.902 98.3002 153.019 98.3002 143.044C98.3002 126.991 111.392 113.9 127.444 113.9C143.497 113.9 156.588 126.991 156.588 143.044C156.588 153.019 151.445 162.058 143.653 167.201C145.835 169.071 147.705 171.565 149.263 174.214C159.238 167.201 165.628 155.824 165.628 143.044Z" fill="white"/>
<path d="M102.343 197.549L104.476 198.541V196.189V186.215V185.346L103.721 184.913C89.2021 176.595 79.3852 161.027 79.3836 143.204C79.5371 116.435 101.164 94.8277 127.6 94.8277C154.198 94.8277 175.661 116.44 175.661 142.888C175.661 160.721 165.991 176.287 151.479 184.602L150.725 185.034V185.903V195.878V198.237L152.861 197.236C173.309 187.651 187.7 166.878 187.7 142.732C187.7 109.949 160.685 82.9442 127.6 82.9442C94.5105 82.9442 67.5001 109.955 67.5001 143.044C67.5001 167.185 81.7307 187.962 102.343 197.549Z" fill="white" stroke="white" stroke-width="3"/>
<path d="M127.6 160.344C137.154 160.344 144.9 152.598 144.9 143.044C144.9 133.49 137.154 125.745 127.6 125.745C118.046 125.745 110.301 133.49 110.301 143.044C110.301 152.598 118.046 160.344 127.6 160.344Z" fill="white"/>
<path d="M127.6 171.097C119.652 171.097 112.95 177.643 112.95 185.747V218.009C112.95 225.957 119.496 232.659 127.6 232.659C135.704 232.659 142.25 226.113 142.25 218.009V185.747C142.25 177.643 135.704 171.097 127.6 171.097Z" fill="white"/>
<rect x="66.0001" y="24" width="15" height="116" fill="white"/>
<defs>
<linearGradient id="paint0_linear" x1="128" y1="7.62939e-06" x2="128" y2="256" gradientUnits="userSpaceOnUse">
<stop stop-color="#FE4B61"/>
<stop offset="1" stop-color="#01E2F0"/>
</linearGradient>
<linearGradient id="paint1_linear" x1="128" y1="256" x2="128" y2="512" gradientUnits="userSpaceOnUse">
<stop stop-color="#AD2EEE"/>
<stop offset="1" stop-color="#01E2F0" stop-opacity="0"/>
</linearGradient>
<linearGradient id="paint2_linear" x1="128" y1="0" x2="128" y2="256" gradientUnits="userSpaceOnUse">
<stop stop-color="#FE4950"/>
<stop offset="1" stop-color="#FFAEAE" stop-opacity="0"/>
</linearGradient>
</defs>
</svg>
